<svg id="Layer_1" data-name="Layer 1" xmlns="http://www.w3.org/2000/svg" viewBox="0 0 512 512"><defs><style>.cls-1{fill:#ffd38d;}.cls-2{fill:#ed7c69;}.cls-3{fill:#6d4135;}</style></defs><title>gift-box-filled</title><rect class="cls-1" x="21.33" y="106.67" width="469.33" height="128"/><rect class="cls-1" x="64" y="234.67" width="384" height="256"/><rect class="cls-2" x="213.33" y="106.67" width="85.33" height="384"/><path class="cls-3" d="M490.67,85.33H359a64,64,0,0,0-103-69,64,64,0,0,0-103,69H21.33A21.33,21.33,0,0,0,0,106.67v128A21.33,21.33,0,0,0,21.33,256H42.67V490.67A21.33,21.33,0,0,0,64,512H448a21.33,21.33,0,0,0,21.33-21.33V256h21.33A21.33,21.33,0,0,0,512,234.67v-128A21.33,21.33,0,0,0,490.67,85.33Zm-213.33,384H234.67V128h42.67ZM298.67,42.67a21.33,21.33,0,0,1,0,42.67H277.33V64A21.36,21.36,0,0,1,298.67,42.67ZM192,64a21.33,21.33,0,1,1,42.67,0V85.33H213.33A21.36,21.36,0,0,1,192,64ZM42.67,128H192v85.33H42.67ZM85.33,256H192V469.33H85.33ZM426.67,469.33H320V256H426.67Zm42.67-256H320V128H469.33Z"/></svg>